:version 1.10
:name ASF
:units
  mass 1
  length 1
  angle deg
:documentation
  ASF file generated by Kaydara
:root
  axis xyz
  order  tx ty tz rx ry rz
  position 0 0 0
  orientation 0 0 0
:bonedata
  begin
    id 1
    name RightUpLegDummy
    direction -0.718183 -0.695806 0.00816078
    length 4.904
    axis 0 0 0 xyz
  end
  begin
    id 2
    name RightUpLeg
    direction 3.53989e-006 -0.995788 0.0916897
    length 17.4976
    axis -3.49089 -0.000906621 0.000287158 xyz
    dof rx ry rz
  end
  begin
    id 3
    name RightLeg
    direction 0.00371093 -0.995096 -0.0988418
    length 16.5821
    axis 3.68512 0.0193738 -0.131023 xyz
    dof rx ry rz
  end
  begin
    id 4
    name RightFoot
    direction 0.000791514 -0.46099 0.887405
    length 3.77069
    axis 4.84075e-005 -0.120479 -0.188788 xyz
    dof rx ry rz
  end
  begin
    id 5
    name RightToes
    direction 0.00124746 -0.014064 0.9999
    length 3.85082
    axis 0.00048216 0.542163 -0.142577 xyz
    dof rx ry rz
  end
  begin
    id 6
    name SpineDummy
    direction 8.36599e-015 1 5.97571e-016
    length 4.6813
    axis 0 0 0 xyz
  end
  begin
    id 7
    name Spine
    direction -4.63632e-008 0.999988 0.00495137
    length 10.1015
    axis -0.00138897 0.000121419 3.25764e-006 xyz
    dof rx ry rz
  end
  begin
    id 8
    name Spine1
    direction 0 0 0
    length 0
    axis -0.00138896 0.000121452 2.39764e-006 xyz
    dof rx ry rz
  end
  begin
    id 9
    name HEadDummy
    direction -3.91456e-008 0.999999 0.00127422
    length 3.43865
    axis -0.00138896 0.000121452 2.39764e-006 xyz
  end
  begin
    id 10
    name HEad
    direction -0.0222688 0.980941 0.193023
    length 5.12695
    axis -0.00138895 0.000121452 2.39764e-006 xyz
    dof rx ry rz
  end
  begin
    id 11
    name LeftShoulder1Dummy
    direction 0.998891 -0.0402508 -0.0244456
    length 3.5433
    axis -0.00138896 0.000121452 2.39764e-006 xyz
  end
  begin
    id 12
    name LeftShoulder1
    direction 0.99951 -0.000327743 0.0313091
    length 4.05031
    axis -0.00138896 0.000121452 2.39764e-006 xyz
    dof rx ry rz
  end
  begin
    id 13
    name LeftArm
    direction 0.998561 -0.00100054 -0.0536182
    length 10.3537
    axis -23.1894 0.134784 0.96751 xyz
    dof rx ry rz
  end
  begin
    id 14
    name LeftForeArm
    direction 0.998903 0.00866434 0.046012
    length 8.70632
    axis -9.91835 -0.06569 -0.177792 xyz
    dof rx ry rz
  end
  begin
    id 15
    name LeftHand
    direction 0.992938 -0.0411636 0.11126
    length 5.32135
    axis -0.00960227 -0.00340091 0.185174 xyz
    dof rx ry rz
  end
  begin
    id 16
    name RightShoulderDummy
    direction -0.998891 -0.0402509 -0.0244414
    length 3.5433
    axis -0.00138896 0.000121452 2.39764e-006 xyz
  end
  begin
    id 17
    name RightShoulder
    direction -0.99951 -0.000327827 0.0313133
    length 4.05031
    axis 0.215806 0.000203644 -0.00680151 xyz
    dof rx ry rz
  end
  begin
    id 18
    name RightArm
    direction -0.998573 -0.000999583 -0.053403
    length 10.3947
    axis -23.2009 -0.134239 -0.9641 xyz
    dof rx ry rz
  end
  begin
    id 19
    name RightForeArm
    direction -0.998898 0.00868026 0.0461306
    length 8.68355
    axis -9.92322 0.0658061 0.178869 xyz
    dof rx ry rz
  end
  begin
    id 20
    name RightHand
    direction -0.992843 -0.0414603 0.112003
    length 5.28593
    axis -0.00960634 0.00330671 -0.185226 xyz
    dof rx ry rz
  end
  begin
    id 21
    name LeftUpLegDummy
    direction 0.718183 -0.695806 0.00816078
    length 4.904
    axis 0 0 0 xyz
  end
  begin
    id 22
    name LeftUpLeg
    direction -6.8115e-006 -0.995793 0.0916336
    length 17.4976
    axis -3.48766 0.00143441 -0.000523914 xyz
    dof rx ry rz
  end
  begin
    id 23
    name LeftLeg
    direction -0.00601357 -0.995091 -0.0987824
    length 16.5821
    axis 3.68177 -0.00654038 -0.00028478 xyz
    dof rx ry rz
  end
  begin
    id 24
    name LeftFoot
    direction -0.00417578 -0.460984 0.887399
    length 3.77069
    axis 1.87232e-006 4.66002e-005 -8.1837e-006 xyz
    dof rx ry rz
  end
  begin
    id 25
    name LeftToes
    direction 0.00818058 -0.00485161 0.999955
    length 3.85048
    axis 1.06246e-005 4.65855e-005 -8.18502e-006 xyz
    dof rx ry rz
  end
:hierarchy
  begin
    root RightUpLegDummy SpineDummy LeftUpLegDummy
    RightUpLegDummy RightUpLeg
    RightUpLeg RightLeg
    RightLeg RightFoot
    RightFoot RightToes
    SpineDummy Spine
    Spine Spine1
    Spine1 HEadDummy LeftShoulder1Dummy RightShoulderDummy
    HEadDummy HEad
    LeftShoulder1Dummy LeftShoulder1
    LeftShoulder1 LeftArm
    LeftArm LeftForeArm
    LeftForeArm LeftHand
    RightShoulderDummy RightShoulder
    RightShoulder RightArm
    RightArm RightForeArm
    RightForeArm RightHand
    LeftUpLegDummy LeftUpLeg
    LeftUpLeg LeftLeg
    LeftLeg LeftFoot
    LeftFoot LeftToes
  end

:SAMPLES-PER-SECOND 30
:FULLY-SPECIFIED
:DEGREES
16
root  -3.38846 40.3787 -1.32187 0.345548 -79.1514 -0.344389
RightUpLeg  0.859379 -2.2972 1.77144
RightLeg  8.14625 -27.0477 -2.49705
RightFoot  -7.15846 -0.126878 2.33924
RightToes  -3.1126e-008 1.75238e-005 3.56266e-009
Spine  -1.28572 -3.52484 -3.97559
Spine1  9.46591 -5.70594 10.28
HEad  -16.5788 -3.66632 16.5261
LeftShoulder1  1.99343 -5.62092 -14.9981
LeftArm  -30.3886 -3.55474 -70.5944
LeftForeArm  24.1072 -73.2273 -39.3797
LeftHand  -0.337516 -1.67897 5.73819
RightShoulder  2.07733 4.89875 18.2161
RightArm  -5.18557 -26.7396 53.0312
RightForeArm  30.3251 38.6111 7.05051
RightHand  -0.0739382 4.37629 -1.14972
LeftUpLeg  -7.8338 5.59505 4.79967
LeftLeg  18.9058 -4.38455 -1.3443
LeftFoot  -6.29095 0.316777 -6.33227
LeftToes  4.78349e-008 1.46828e-008 1.33736e-009
17
root  -3.40422 40.1706 -1.49413 5.72539 -77.5701 -7.01348
RightUpLeg  1.79687 -2.23864 3.48441
RightLeg  9.14631 -28.7159 -2.69896
RightFoot  -7.93338 -0.108991 2.07066
RightToes  -3.1126e-008 1.75238e-005 3.56266e-009
Spine  -0.930947 -3.62903 -2.82987
Spine1  11.2043 -6.07521 10.8745
HEad  -18.1288 -4.30632 17.3073
LeftShoulder1  2.18773 -5.8872 -16.6026
LeftArm  -32.1373 -12.2829 -69.3272
LeftForeArm  16.2587 -71.0907 -34.5423
LeftHand  -0.26058 -2.72627 3.94995
RightShoulder  1.91131 4.28329 18.0272
RightArm  -5.06046 -25.4651 53.4203
RightForeArm  30.299 34.4099 5.92751
RightHand  0.0336621 3.97369 0.143449
LeftUpLeg  -8.44645 3.77831 6.65698
LeftLeg  22.0977 -4.35913 -1.62641
LeftFoot  -7.96953 0.235831 -6.39175
LeftToes  4.78349e-008 1.46828e-008 1.33736e-009
18
root  -3.40439 39.9527 -1.64709 9.34462 -76.415 -12.5014
RightUpLeg  3.07127 -2.64599 4.86257
RightLeg  10.6275 -29.4236 -2.76641
RightFoot  -9.04188 -0.10042 1.91581
RightToes  -3.1126e-008 1.75238e-005 3.56266e-009
Spine  -0.949717 -3.72336 -1.63008
Spine1  14.6658 -6.49265 11.1845
HEad  -20.0796 -4.29069 18.2837
LeftShoulder1  2.1564 -5.66235 -16.8394
LeftArm  -34.2403 -20.4123 -69.0876
LeftForeArm  8.55274 -67.8538 -28.7698
LeftHand  -0.16772 -3.04185 2.52313
RightShoulder  1.80067 3.84487 17.983
RightArm  -6.80476 -23.0751 54.1664
RightForeArm  31.2085 29.7217 4.73517
RightHand  0.0596599 3.70605 0.507635
LeftUpLeg  -8.11147 2.65967 8.50437
LeftLeg  24.8243 -4.53656 -1.96724
LeftFoot  -9.80506 0.144416 -6.34298
LeftToes  4.78349e-008 1.46828e-008 1.33736e-009
19
root  -3.42878 39.7835 -1.79575 11.5689 -75.7847 -16.4049
RightUpLeg  4.36615 -2.93309 5.95813
RightLeg  11.6255 -29.7872 -2.79727
RightFoot  -9.85611 -0.0879064 1.6362
RightToes  -3.1126e-008 1.75238e-005 3.56266e-009
Spine  -1.85303 -3.91297 -0.843255
Spine1  19.1545 -7.09919 11.3734
HEad  -22.0043 -3.4633 18.5142
LeftShoulder1  2.09179 -5.73583 -15.8901
LeftArm  -36.6259 -25.5222 -68.4089
LeftForeArm  0.97474 -65.7235 -26.3094
LeftHand  -0.174341 -1.5328 3.15986
RightShoulder  2.00704 4.63016 18.1684
RightArm  -12.5819 -21.4609 55.0072
RightForeArm  33.7863 26.4682 3.87591
RightHand  0.082476 3.37131 0.84046
LeftUpLeg  -7.26955 1.98294 9.93515
LeftLeg  26.4216 -4.55948 -2.1361
LeftFoot  -11.1696 0.0756975 -6.16646
LeftToes  4.78349e-008 1.46828e-008 1.33736e-009
20
root  -3.46365 39.735 -1.92592 12.0704 -76.2889 -17.8501
RightUpLeg  4.98823 -2.91081 6.40151
RightLeg  12.4294 -29.4847 -3.2134
RightFoot  -10.2138 -0.0838662 1.48482
RightToes  -3.1126e-008 1.75238e-005 3.56266e-009
Spine  -3.00393 -3.77839 -1.16272
Spine1  22.7349 -7.45163 11.9652
HEad  -23.6957 -2.22002 18.115
LeftShoulder1  2.14096 -6.36347 -14.8447
LeftArm  -38.7368 -26.2611 -66.8126
LeftForeArm  -4.12015 -66.7778 -28.6517
LeftHand  -0.201872 0.959503 5.22845
RightShoulder  2.0884 4.98595 18.0847
RightArm  -16.8925 -20.0546 55.5163
RightForeArm  33.8941 23.6282 3.37794
RightHand  -0.0120353 2.85679 -0.370651
LeftUpLeg  -6.26936 1.52085 10.3783
LeftLeg  26.6935 -3.9376 -1.82676
LeftFoot  -11.5511 0.0574094 -6.49425
LeftToes  4.78349e-008 1.46828e-008 1.33736e-009
21
root  -3.53606 39.76 -2.04945 11.4585 -77.0781 -17.5802
RightUpLeg  5.36521 -2.95503 6.28739
RightLeg  12.5258 -28.8578 -3.21632
RightFoot  -10.2945 -0.081374 1.27591
RightToes  -3.1126e-008 1.75238e-005 3.56266e-009
Spine  -2.9638 -3.99341 -2.2489
Spine1  23.3725 -7.99558 12.7384
HEad  -22.9359 -0.147474 17.7547
LeftShoulder1  2.05934 -6.35958 -13.9521
LeftArm  -40.3549 -21.8776 -64.9201
LeftForeArm  2.46438 -71.2408 -37.4393
LeftHand  -0.144654 2.49561 5.20089
RightShoulder  2.1165 5.1647 17.883
RightArm  -18.6092 -20.1423 55.5032
RightForeArm  33.7129 22.3081 3.41694
RightHand  -0.14054 2.83431 -2.20892
LeftUpLeg  -5.43704 1.62496 10.3256
LeftLeg  26.2759 -3.51463 -1.56267
LeftFoot  -11.2873 0.0707871 -6.87075
LeftToes  4.78349e-008 1.46828e-008 1.33736e-009
22
root  -3.65012 39.848 -2.11814 11.3503 -78.5101 -16.904
RightUpLeg  4.97302 -2.63383 5.9925
RightLeg  12.2808 -27.8608 -3.25666
RightFoot  -9.95793 -0.0809476 1.10646
RightToes  -3.1126e-008 1.75238e-005 3.56266e-009
Spine  -3.00098 -4.03989 -2.70914
Spine1  21.8975 -7.90824 12.7467
HEad  -20.8094 1.41987 16.6303
LeftShoulder1  2.076 -6.43815 -13.9542
LeftArm  -41.3658 -14.0592 -62.7593
LeftForeArm  23.2884 -76.3325 -57.9073
LeftHand  -0.0424748 1.73898 1.25924
RightShoulder  1.94472 4.51073 17.7195
RightArm  -18.3537 -22.0172 55.6114
RightForeArm  33.3404 23.4093 3.36181
RightHand  -0.153763 2.847 -2.39274
LeftUpLeg  -4.9846 2.8803 10.0344
LeftLeg  25.177 -3.35043 -1.39452
LeftFoot  -10.7165 0.102678 -7.04315
LeftToes  4.78349e-008 1.46828e-008 1.33736e-009
23
root  -3.7827 39.9675 -2.1485 11.6512 -80.1742 -16.0165
RightUpLeg  4.33231 -2.1624 5.57979
RightLeg  11.161 -26.6761 -2.89408
RightFoot  -9.35841 -0.080474 0.995826
RightToes  -3.1126e-008 1.75238e-005 3.56266e-009
Spine  -3.521 -4.38585 -2.97017
Spine1  19.9996 -8.00978 12.3949
HEad  -18.0637 3.0966 15.3056
LeftShoulder1  2.0974 -6.40238 -14.2735
LeftArm  -43.7306 -4.71233 -60.8306
LeftForeArm  60.3708 -78.2997 -96.6666
LeftHand  0.133959 -0.605364 -2.51893
RightShoulder  1.81566 4.12335 17.2273
RightArm  -16.5881 -23.9563 55.4752
RightForeArm  32.2917 24.8635 3.61549
RightHand  -0.108567 3.26162 -1.68908
LeftUpLeg  -4.83838 4.5316 9.59878
LeftLeg  23.5678 -3.23383 -1.22221
LeftFoot  -10.0865 0.140566 -7.31588
LeftToes  4.78349e-008 1.46828e-008 1.33736e-009
24
root  -3.90315 40.0623 -2.16112 12.7648 -82.01 -15.9908
RightUpLeg  3.76744 -1.77502 5.1986
RightLeg  9.93118 -25.276 -2.43526
RightFoot  -8.80518 -0.0743246 0.655958
RightToes  -3.1126e-008 1.75238e-005 3.56266e-009
Spine  -4.3851 -4.73743 -2.22891
Spine1  18.8138 -7.82806 10.9182
HEad  -15.8111 5.31718 13.9505
LeftShoulder1  1.96186 -5.9264 -13.8695
LeftArm  -48.073 3.11198 -60.269
LeftForeArm  87.4732 -75.5996 -126.329
LeftHand  0.411052 -3.00537 -5.49599
RightShoulder  1.71092 3.68977 17.2031
RightArm  -15.05 -25.5135 55.3021
RightForeArm  30.9279 26.8145 4.1089
RightHand  -0.0881601 3.70505 -1.392
LeftUpLeg  -4.58664 6.79753 9.31213
LeftLeg  21.9696 -3.5121 -1.23691
LeftFoot  -9.77033 0.160087 -7.40982
LeftToes  4.78349e-008 1.46828e-008 1.33736e-009
25
root  -3.99843 40.0923 -2.16119 15.6388 -83.41 -18.0551
RightUpLeg  3.27366 -1.44594 5.11741
RightLeg  9.29079 -24.1762 -2.18147
RightFoot  -8.67303 -0.0695061 0.458507
RightToes  -3.1126e-008 1.75238e-005 3.56266e-009
Spine  -5.05354 -5.00946 -1.34916
Spine1  17.8336 -7.85417 10.1692
HEad  -14.1806 7.16286 12.3773
LeftShoulder1  1.85143 -5.54314 -13.4954
LeftArm  -54.6696 8.16851 -60.8113
LeftForeArm  97.6956 -72.8024 -137.752
LeftHand  0.516285 -4.97635 -5.49603
RightShoulder  1.67834 3.66367 16.8046
RightArm  -13.5033 -27.2465 54.9582
RightForeArm  29.1405 28.96 4.68094
RightHand  -0.101409 5.04364 -1.43261
LeftUpLeg  -4.40409 9.17829 9.40426
LeftLeg  21.0275 -4.31469 -1.51128
LeftFoot  -9.9919 0.1429 -7.06263
LeftToes  4.78349e-008 1.46828e-008 1.33736e-009
26
root  -4.03304 40.0452 -2.15668 21.1275 -84.1893 -23.2242
RightUpLeg  2.92275 -1.1858 5.43391
RightLeg  9.32975 -23.5889 -2.19129
RightFoot  -8.88591 -0.0655545 0.242525
RightToes  -3.1126e-008 1.75238e-005 3.56266e-009
Spine  -5.39452 -5.03436 -0.0771754
Spine1  17.4027 -7.78799 9.77734
HEad  -13.5903 8.59361 10.3695
LeftShoulder1  1.74147 -5.16977 -13.067
LeftArm  -62.1184 8.88864 -61.5936
LeftForeArm  98.0137 -72.4227 -138.691
LeftHand  0.362385 -4.26837 -4.03306
RightShoulder  1.66735 3.73404 16.3866
RightArm  -12.4776 -28.9862 54.497
RightForeArm  26.7551 31.2245 5.33515
RightHand  -0.0975051 3.91292 -1.47781
LeftUpLeg  -4.37413 11.0654 9.92368
LeftLeg  21.1007 -5.22065 -1.90419
LeftFoot  -10.9342 0.0904791 -6.96202
LeftToes  4.78349e-008 1.46828e-008 1.33736e-009
27
root  -4.01102 39.9377 -2.10919 30.0792 -84.2836 -32.4745
RightUpLeg  2.76543 -1.16922 6.07395
RightLeg  10.2364 -23.1768 -2.19725
RightFoot  -9.43753 -0.0652199 0.0873103
RightToes  -3.1126e-008 1.75238e-005 3.56266e-009
Spine  -5.17642 -4.65477 2.18794
Spine1  17.1589 -7.30545 9.23646
HEad  -13.8315 8.86254 7.75512
LeftShoulder1  1.64531 -4.92813 -12.4473
LeftArm  -67.9559 6.64424 -61.6721
LeftForeArm  88.6401 -74.6788 -130.121
LeftHand  0.157022 -2.99586 -1.97689
RightShoulder  1.61733 3.51918 16.3804
RightArm  -11.8967 -29.7661 53.5522
RightForeArm  27.1004 32.1296 5.53511
RightHand  -0.137429 4.77673 -1.86172
LeftUpLeg  -4.48519 11.832 10.8882
LeftLeg  22.3275 -5.37087 -2.10053
LeftFoot  -12.2445 0.02259 -6.48971
LeftToes  4.78349e-008 1.46828e-008 1.33736e-009
28
root  -3.93837 39.7651 -2.05482 37.9496 -83.187 -41.5297
RightUpLeg  3.32117 -1.26911 7.30749
RightLeg  11.5165 -23.554 -2.26791
RightFoot  -10.1323 -0.0707911 0.196374
RightToes  -3.1126e-008 1.75238e-005 3.56266e-009
Spine  -4.1891 -4.68081 4.48154
Spine1  17.7973 -7.56019 9.58608
HEad  -15.2547 9.66568 4.20908
LeftShoulder1  1.67103 -5.03463 -12.4939
LeftArm  -72.6771 3.94885 -59.878
LeftForeArm  66.8978 -77.4371 -109.281
LeftHand  0.195935 -3.07906 -2.47284
RightShoulder  1.59731 3.45133 16.3119
RightArm  -11.3715 -29.1068 52.588
RightForeArm  27.5949 31.9724 5.46923
RightHand  -0.169203 5.234 -2.15938
LeftUpLeg  -4.52935 11.02 12.4553
LeftLeg  24.6033 -4.80043 -2.07565
LeftFoot  -13.909 -0.0532964 -6.07459
LeftToes  4.78349e-008 1.46828e-008 1.33736e-009
29
root  -3.84524 39.5885 -2.01392 43.3072 -82.0606 -48.2963
RightUpLeg  4.07309 -1.30374 8.5914
RightLeg  12.8181 -23.9499 -2.46431
RightFoot  -10.8549 -0.0755691 0.18304
RightToes  -3.1126e-008 1.75238e-005 3.56266e-009
Spine  -3.71562 -4.36675 5.93926
Spine1  20.1181 -8.02278 11.219
HEad  -18.6648 10.1707 -0.714483
LeftShoulder1  1.91017 -5.66642 -13.9027
LeftArm  -75.8447 0.346375 -56.6455
LeftForeArm  32.4386 -77.7301 -74.4781
LeftHand  0.242202 -2.75124 -3.2485
RightShoulder  1.60009 3.47558 16.2685
RightArm  -11.3302 -27.5788 51.1137
RightForeArm  26.9973 31.7499 5.45044
RightHand  -0.169252 4.65269 -2.24134
LeftUpLeg  -4.17102 9.53953 13.9501
LeftLeg  26.4675 -3.96967 -1.82459
LeftFoot  -15.5986 -0.134703 -6.11868
LeftToes  4.78349e-008 1.46828e-008 1.33736e-009
